<?xml version="1.0" standalone="no"?>
<!DOCTYPE svg PUBLIC "-//W3C//DTD SVG 20010904//EN"
 "http://www.w3.org/TR/2001/REC-SVG-20010904/DTD/svg10.dtd">
<svg version="1.0" xmlns="http://www.w3.org/2000/svg"
 width="260.000000pt" height="260.000000pt" viewBox="0 0 260.000000 260.000000"
 preserveAspectRatio="xMidYMid meet">
<metadata>
Created by potrace 1.11, written by Peter Selinger 2001-2013
</metadata>
<g transform="translate(0.000000,260.000000) scale(0.100000,-0.100000)"
fill="#000000" stroke="none">
<path d="M0 1300 l0 -1300 1300 0 1300 0 0 1300 0 1300 -1300 0 -1300 0 0
-1300z m1099 558 c57 -29 78 -58 93 -128 35 -169 -120 -330 -342 -356 -25 -3
-59 -7 -76 -10 l-32 -5 -6 -137 c-3 -75 -8 -163 -10 -195 l-4 -59 71 -34 c55
-26 84 -34 128 -34 70 0 109 26 190 126 52 63 58 75 68 142 20 127 84 279 134
316 37 28 80 8 115 -54 l27 -47 39 33 c49 42 124 61 182 45 50 -13 109 -73
119 -121 l7 -32 32 31 c46 44 116 72 184 72 71 1 102 -11 135 -50 47 -57 48
-127 1 -324 -39 -161 -24 -164 118 -23 80 79 102 90 113 56 18 -57 -34 -169
-109 -237 -123 -111 -266 -130 -311 -43 -25 48 -30 161 -11 265 27 152 20 195
-30 195 -36 0 -81 -47 -120 -124 -44 -91 -51 -135 -30 -215 21 -83 20 -104 -6
-128 -36 -32 -104 -63 -140 -63 -66 0 -78 69 -59 355 7 101 10 193 6 204 -4
15 -15 21 -35 21 -37 0 -92 -61 -136 -153 -40 -83 -45 -156 -18 -262 15 -59
15 -67 1 -89 -23 -34 -117 -78 -158 -74 -42 4 -58 33 -61 111 -1 32 -3 57 -5
57 -1 0 -21 -19 -42 -43 -77 -84 -199 -126 -303 -107 -29 6 -83 24 -120 42
l-69 31 -27 -25 c-39 -37 -80 -55 -153 -69 -55 -10 -73 -9 -121 5 -64 18 -92
47 -109 109 -33 124 48 207 202 207 l76 0 8 93 c3 50 13 130 21 177 14 79 14
86 -2 95 -10 6 -37 28 -61 49 -34 30 -43 45 -41 65 4 35 36 39 98 12 27 -12
51 -21 54 -21 2 0 10 17 16 38 17 54 76 160 117 209 44 54 115 104 173 120 62
18 163 9 219 -19z"/>
<path d="M904 1726 c-51 -23 -93 -90 -129 -205 -7 -23 -6 -24 35 -17 111 18
214 95 214 161 0 19 -7 42 -15 50 -21 22 -70 27 -105 11z"/>
<path d="M377 905 c-23 -23 -21 -42 7 -60 31 -20 72 -11 93 22 20 30 9 43 -44
50 -29 4 -44 1 -56 -12z"/>
</g>
</svg>
